%TF.GenerationSoftware,KiCad,Pcbnew,(5.99.0-8821-g31003c6e09)*%
%TF.CreationDate,2021-03-07T11:32:37-07:00*%
%TF.ProjectId,testPCB,74657374-5043-4422-9e6b-696361645f70,rev?*%
%TF.SameCoordinates,Original*%
%TF.FileFunction,Copper,L1,Top*%
%TF.FilePolarity,Positive*%
%FSLAX46Y46*%
G04 Gerber Fmt 4.6, Leading zero omitted, Abs format (unit mm)*
G04 Created by KiCad (PCBNEW (5.99.0-8821-g31003c6e09)) date 2021-03-07 11:32:37*
%MOMM*%
%LPD*%
G01*
G04 APERTURE LIST*
G04 Aperture macros list*
%AMRoundRect*
0 Rectangle with rounded corners*
0 $1 Rounding radius*
0 $2 $3 $4 $5 $6 $7 $8 $9 X,Y pos of 4 corners*
0 Add a 4 corners polygon primitive as box body*
4,1,4,$2,$3,$4,$5,$6,$7,$8,$9,$2,$3,0*
0 Add four circle primitives for the rounded corners*
1,1,$1+$1,$2,$3*
1,1,$1+$1,$4,$5*
1,1,$1+$1,$6,$7*
1,1,$1+$1,$8,$9*
0 Add four rect primitives between the rounded corners*
20,1,$1+$1,$2,$3,$4,$5,0*
20,1,$1+$1,$4,$5,$6,$7,0*
20,1,$1+$1,$6,$7,$8,$9,0*
20,1,$1+$1,$8,$9,$2,$3,0*%
G04 Aperture macros list end*
%TA.AperFunction,SMDPad,CuDef*%
%ADD10RoundRect,0.250000X0.625000X-0.400000X0.625000X0.400000X-0.625000X0.400000X-0.625000X-0.400000X0*%
%TD*%
%TA.AperFunction,ComponentPad*%
%ADD11R,1.700000X1.700000*%
%TD*%
%TA.AperFunction,ComponentPad*%
%ADD12O,1.700000X1.700000*%
%TD*%
%TA.AperFunction,SMDPad,CuDef*%
%ADD13R,1.500000X2.000000*%
%TD*%
%TA.AperFunction,ViaPad*%
%ADD14C,2.500000*%
%TD*%
%TA.AperFunction,Conductor*%
%ADD15C,0.800000*%
%TD*%
%TA.AperFunction,Conductor*%
%ADD16C,1.000000*%
%TD*%
%TA.AperFunction,Conductor*%
%ADD17C,0.600000*%
%TD*%
G04 APERTURE END LIST*
D10*
%TO.P,R1,1*%
%TO.N,Net-(J1-Pad3)*%
X-180060600Y-318338800D03*
%TO.P,R1,2*%
%TO.N,Net-(J1-Pad4)*%
X-180060600Y-315238800D03*
%TD*%
D11*
%TO.P,J2,1,Pin_1*%
%TO.N,GND*%
X-187756800Y-312648600D03*
D12*
%TO.P,J2,2,Pin_2*%
%TO.N,Net-(J1-Pad4)*%
X-187756800Y-315188600D03*
%TO.P,J2,3,Pin_3*%
%TO.N,Net-(J1-Pad3)*%
X-187756800Y-317728600D03*
%TD*%
D13*
%TO.P,J1,1,Pin_1*%
%TO.N,GND*%
X-206519800Y-318180600D03*
%TO.P,J1,2,Pin_2*%
X-206519800Y-311180600D03*
%TO.P,J1,3,Pin_3*%
%TO.N,Net-(J1-Pad3)*%
X-203119800Y-318180600D03*
%TO.P,J1,4,Pin_4*%
%TO.N,Net-(J1-Pad4)*%
X-199319800Y-311180600D03*
%TO.P,J1,5,Pin_5*%
%TO.N,GND*%
X-197119800Y-311180600D03*
%TO.P,J1,6,Pin_6*%
X-197619800Y-318180600D03*
%TD*%
D14*
%TO.N,Net-(J1-Pad4)*%
X-187756800Y-324307200D03*
%TO.N,GND*%
X-187731400Y-306552600D03*
%TD*%
D15*
%TO.N,Net-(J1-Pad4)*%
X-176301400Y-321056000D02*
X-176301400Y-315315600D01*
D16*
X-198895368Y-313055000D02*
X-199313800Y-313055000D01*
D15*
X-179552600Y-324307200D02*
X-176301400Y-321056000D01*
D16*
X-187756800Y-315188600D02*
X-180110800Y-315188600D01*
D15*
X-176301400Y-315315600D02*
X-176378200Y-315238800D01*
X-187756800Y-324307200D02*
X-179552600Y-324307200D01*
D16*
X-187756800Y-315188600D02*
X-196761768Y-315188600D01*
X-180110800Y-315188600D02*
X-180060600Y-315238800D01*
X-199319800Y-313049000D02*
X-199319800Y-311180600D01*
X-199313800Y-313055000D02*
X-199319800Y-313049000D01*
D15*
X-176378200Y-315238800D02*
X-180060600Y-315238800D01*
D16*
X-196761768Y-315188600D02*
X-198895368Y-313055000D01*
%TO.N,Net-(J1-Pad3)*%
X-192760600Y-321487800D02*
X-201422000Y-321487800D01*
X-180670800Y-317728600D02*
X-180060600Y-318338800D01*
X-187756800Y-317728600D02*
X-189001400Y-317728600D01*
X-187756800Y-317728600D02*
X-180670800Y-317728600D01*
X-203119800Y-319790000D02*
X-203119800Y-318180600D01*
X-189001400Y-317728600D02*
X-192760600Y-321487800D01*
X-201422000Y-321487800D02*
X-203119800Y-319790000D01*
D15*
%TO.N,GND*%
X-206519800Y-320809600D02*
X-206519800Y-318180600D01*
X-206519800Y-318180600D02*
X-206519800Y-317291800D01*
X-201117200Y-307644800D02*
X-197281800Y-307644800D01*
X-197119800Y-307806800D02*
X-197119800Y-311180600D01*
D17*
X-189224800Y-311180600D02*
X-187731400Y-309687200D01*
X-187731400Y-309687200D02*
X-187731400Y-306552600D01*
D15*
X-206519800Y-317291800D02*
X-202514200Y-313286200D01*
X-202514200Y-313286200D02*
X-202514200Y-310896000D01*
X-206519800Y-311180600D02*
X-206519800Y-304589200D01*
X-173583600Y-305181000D02*
X-173583600Y-323113400D01*
X-202514200Y-310896000D02*
X-202514200Y-309041800D01*
X-206519800Y-304589200D02*
X-205359000Y-303428400D01*
X-175336200Y-303428400D02*
X-173583600Y-305181000D01*
X-202514200Y-309041800D02*
X-201117200Y-307644800D01*
X-173583600Y-323113400D02*
X-178587400Y-328117200D01*
X-199212200Y-328117200D02*
X-206519800Y-320809600D01*
X-197619800Y-318180600D02*
X-202514200Y-313286200D01*
D17*
X-187756800Y-312648600D02*
X-189224800Y-311180600D01*
D15*
X-197281800Y-307644800D02*
X-197119800Y-307806800D01*
X-202798800Y-311180600D02*
X-202514200Y-310896000D01*
X-205359000Y-303428400D02*
X-175336200Y-303428400D01*
X-206519800Y-311180600D02*
X-202798800Y-311180600D01*
X-178587400Y-328117200D02*
X-199212200Y-328117200D01*
D17*
X-189224800Y-311180600D02*
X-197119800Y-311180600D01*
%TD*%
M02*
